<svg width="20" height="27" viewBox="0 0 20 27" fill="none" xmlns="http://www.w3.org/2000/svg">
<g clip-path="url(#clip0_155_297)">
<path d="M11.6406 1.6875C5.20833 1.6875 0 6.97676 0 13.5C0 20.0232 5.20833 25.3125 11.6406 25.3125C14.7969 25.3125 17.6562 24.0363 19.7552 21.9691C20.0156 21.7107 20.0833 21.31 19.9167 20.983C19.75 20.6561 19.3906 20.4715 19.0312 20.5348C18.5208 20.6244 18 20.6719 17.4635 20.6719C12.4167 20.6719 8.32292 16.5164 8.32292 11.3906C8.32292 7.9207 10.1979 4.89902 12.974 3.30645C13.2917 3.12188 13.4531 2.75273 13.375 2.39414C13.2969 2.03555 12.9948 1.7666 12.6302 1.73496C12.3021 1.70859 11.974 1.69277 11.6406 1.69277V1.6875Z" fill="#364B82"/>
</g>
<defs>
<clipPath id="clip0_155_297">
<rect width="20" height="27" fill="white"/>
</clipPath>
</defs>
</svg>
