<svg width="24" height="24" viewBox="0 0 24 24" fill="none" xmlns="http://www.w3.org/2000/svg">
<g clip-path="url(#clip0_131_141)">
<path d="M16.9451 0.0560324C17.1795 0.15447 17.3482 0.365407 17.3951 0.613845L18.3279 5.67166L23.3857 6.59978C23.6342 6.64666 23.8451 6.81541 23.9435 7.04978C24.042 7.28416 24.0138 7.55134 23.8685 7.76228L20.9482 11.9998L23.8685 16.2326C24.0138 16.4435 24.042 16.7107 23.9435 16.9451C23.8451 17.1795 23.6342 17.3482 23.3857 17.3951L18.3279 18.3279L17.3951 23.3857C17.3482 23.6342 17.1795 23.8451 16.9451 23.9435C16.7107 24.042 16.4435 24.0138 16.2326 23.8685L11.9998 20.9482L7.76697 23.8685C7.55603 24.0138 7.28884 24.042 7.05447 23.9435C6.82009 23.8451 6.65134 23.6342 6.60447 23.3857L5.67166 18.3279L0.613845 17.3951C0.365407 17.3482 0.15447 17.1795 0.0560324 16.9451C-0.0424051 16.7107 -0.0142801 16.4435 0.131032 16.2326L3.05134 11.9998L0.131032 7.76697C-0.0142801 7.55603 -0.0424051 7.28884 0.0560324 7.05447C0.15447 6.82009 0.365407 6.65134 0.613845 6.60447L5.67166 5.67166L6.60447 0.613845C6.65134 0.365407 6.82009 0.15447 7.05447 0.0560324C7.28884 -0.0424051 7.55603 -0.0142801 7.76697 0.131032L11.9998 3.05134L16.2326 0.131032C16.4435 -0.0142801 16.7107 -0.0424051 16.9451 0.0560324ZM7.49978 11.9998C7.49978 10.8063 7.97389 9.66172 8.8178 8.8178C9.66172 7.97389 10.8063 7.49978 11.9998 7.49978C13.1933 7.49978 14.3378 7.97389 15.1818 8.8178C16.0257 9.66172 16.4998 10.8063 16.4998 11.9998C16.4998 13.1933 16.0257 14.3378 15.1818 15.1818C14.3378 16.0257 13.1933 16.4998 11.9998 16.4998C10.8063 16.4998 9.66172 16.0257 8.8178 15.1818C7.97389 14.3378 7.49978 13.1933 7.49978 11.9998ZM17.9998 11.9998C17.9998 10.4085 17.3676 8.88236 16.2424 7.75714C15.1172 6.63192 13.5911 5.99978 11.9998 5.99978C10.4085 5.99978 8.88236 6.63192 7.75714 7.75714C6.63192 8.88236 5.99978 10.4085 5.99978 11.9998C5.99978 13.5911 6.63192 15.1172 7.75714 16.2424C8.88236 17.3676 10.4085 17.9998 11.9998 17.9998C13.5911 17.9998 15.1172 17.3676 16.2424 16.2424C17.3676 15.1172 17.9998 13.5911 17.9998 11.9998Z" fill="#E3DCDC"/>
</g>
<defs>
<clipPath id="clip0_131_141">
<rect width="24" height="24" fill="white"/>
</clipPath>
</defs>
</svg>
